Run_20002
nRows=4
nColumns=164

# SIMM Motion File Header:
name Run_20002
datacolumns 164
datarows 4
otherdata 1
range 0.18000000 0.21000000
endheader
time	pelvis_tilt	pelvis_list	pelvis_rotation	pelvis_tx	pelvis_ty	pelvis_tz	hip_flexion_r	hip_adduction_r	hip_rotation_r	knee_angle_r	ankle_angle_r	hip_flexion_l	hip_adduction_l	hip_rotation_l	knee_angle_l	ankle_angle_l	lumbar_extension	lumbar_bending	lumbar_rotation	arm_flex_r	arm_add_r	arm_rot_r	elbow_flex_r	pro_sup_r	arm_flex_l	arm_add_l	arm_rot_l	elbow_flex_l	pro_sup_l	subtalar_angle_r	mtp_angle_r	subtalar_angle_l	mtp_angle_l	wrist_flex_r	wrist_dev_r	wrist_flex_l	wrist_dev_l	LPSI_tx	LPSI_ty	LPSI_tz	RPSI_tx	RPSI_ty	RPSI_tz	RTH1_tx	RTH1_ty	RTH1_tz	RTH2_tx	RTH2_ty	RTH2_tz	RTH3_tx	RTH3_ty	RTH3_tz	LTH1_tx	LTH1_ty	LTH1_tz	LTH2_tx	LTH2_ty	LTH2_tz	LTH3_tx	LTH3_ty	LTH3_tz	RTB1_tx	RTB1_ty	RTB1_tz	RTB2_tx	RTB2_ty	RTB2_tz	RTB3_tx	RTB3_ty	RTB3_tz	LTB1_tx	LTB1_ty	LTB1_tz	LTB2_tx	LTB2_ty	LTB2_tz	LTB3_tx	LTB3_ty	LTB3_tz	RCAL_tx	RCAL_ty	RCAL_tz	RTOE_tx	RTOE_ty	RTOE_tz	RMT5_tx	RMT5_ty	RMT5_tz	LCAL_tx	LCAL_ty	LCAL_tz	LTOE_tx	LTOE_ty	LTOE_tz	LMT5_tx	LMT5_ty	LMT5_tz	LACR_tx	LACR_ty	LACR_tz	RACR_tx	RACR_ty	RACR_tz	CLAV_tx	CLAV_ty	CLAV_tz	C7_tx	C7_ty	C7_tz	RUA1_tx	RUA1_ty	RUA1_tz	RUA2_tx	RUA2_ty	RUA2_tz	RUA3_tx	RUA3_ty	RUA3_tz	RLEL_tx	RLEL_ty	RLEL_tz	RMEL_tx	RMEL_ty	RMEL_tz	LUA1_tx	LUA1_ty	LUA1_tz	LUA2_tx	LUA2_ty	LUA2_tz	LUA3_tx	LUA3_ty	LUA3_tz	LLEL_tx	LLEL_ty	LLEL_tz	LMEL_tx	LMEL_ty	LMEL_tz	RFAsuperior_tx	RFAsuperior_ty	RFAsuperior_tz	RFAradius_tx	RFAradius_ty	RFAradius_tz	RFAulna_tx	RFAulna_ty	RFAulna_tz	LFAsuperior_tx	LFAsuperior_ty	LFAsuperior_tz	LFAradius_tx	LFAradius_ty	LFAradius_tz	LFAulna_tx	LFAulna_ty	LFAulna_tz	RASI_tx	RASI_ty	RASI_tz	LASI_tx	LASI_ty	LASI_tz
      0.18000000	     -2.22116960	     -2.11882406	     -4.03293924	      0.77294110	      1.00235596	     -0.45807617	     17.87808563	      6.06625423	     -2.44454605	    -32.11882816	      8.49991731	      5.00241138	     -5.68838056	     -6.43292717	    -68.89687310	    -13.43064069	     -3.48242850	      3.11588845	    -10.03279885	    -23.60158556	    -22.02779029	      2.55828495	    102.46251834	     74.09660280	    -14.79904396	    -33.25825616	     19.34477344	    111.16661765	     76.12971828	      0.00000000	      0.00000000	      0.00000000	      0.00000000	      0.00000000	      0.00000000	      0.00000000	      0.00000000	      0.59864961	      1.07031623	     -0.52143426	      0.58962919	      1.07143942	     -0.43652179	      0.71829176	      0.87358238	     -0.28032033	      0.80021627	      0.74828919	     -0.29160689	      0.74860027	      0.63144912	     -0.31517614	      0.73113794	      0.87664813	     -0.65450765	      0.78731809	      0.75835439	     -0.63329002	      0.69896952	      0.62719983	     -0.64176787	      0.81393609	      0.38799613	     -0.38131623	      0.74546430	      0.29646798	     -0.33831319	      0.75060378	      0.19841459	     -0.40312439	      0.63718782	      0.41651590	     -0.59174622	      0.54049636	      0.43259350	     -0.65549726	      0.45024630	      0.33131600	     -0.58994844	      0.59455802	      0.08634246	     -0.43882495	      0.83100517	      0.06884406	     -0.40111821	      0.78358087	      0.05062790	     -0.31482646	      0.27548700	      0.38163579	     -0.56268227	      0.33878247	      0.16024765	     -0.59130558	      0.28873122	      0.16792097	     -0.66786895	      0.75951837	      1.52406727	     -0.62965171	      0.68040031	      1.51141878	     -0.29840274	      0.79824603	      1.47838955	     -0.42090361	      0.66808560	      1.55151902	     -0.48721356	      0.59377499	      1.41448219	     -0.22669908	      0.51986582	      1.35091360	     -0.26949826	      0.53407907	      1.31483066	     -0.20157925	      0.50126799	      1.22816920	     -0.17521658	      0.48256595	      1.20534901	     -0.25458798	      0.73449834	      1.42874391	     -0.73307280	      0.66756973	      1.35149639	     -0.74517691	      0.72736575	      1.32394482	     -0.79273055	      0.73761249	      1.24232506	     -0.83127391	      0.66960058	      1.20761678	     -0.80065325	      0.56565124	      1.17657003	     -0.17048717	      0.76692194	      1.15726653	     -0.22391924	      0.73218456	      1.09483192	     -0.21738613	      0.81517544	      1.18728341	     -0.74714119	      0.87299140	      1.19626997	     -0.59968466	      0.86317684	      1.13170844	     -0.62366134	      0.76896407	      1.00378634	     -0.33280358	      0.78831445	      0.99505483	     -0.58597403
      0.19000000	     -2.30504065	     -2.31782992	     -3.61506781	      0.77109252	      0.99757957	     -0.45863241	     17.46647775	      6.10398705	     -3.00104186	    -33.54655601	     10.50400675	      7.40939993	     -5.95915636	     -5.50332854	    -71.84627104	    -12.07017658	     -3.68741075	      3.78618922	     -9.51664127	    -21.82638499	    -21.48135030	      2.90111730	    101.29474263	     74.40516621	    -15.21709328	    -32.97861955	     19.70625105	    109.03246590	     76.14096062	      0.00000000	      0.00000000	      0.00000000	      0.00000000	      0.00000000	      0.00000000	      0.00000000	      0.00000000	      0.59515533	      1.06680907	     -0.51999216	      0.58841284	      1.06766076	     -0.43527439	      0.71478375	      0.86879666	     -0.27966174	      0.79715999	      0.74350307	     -0.29164085	      0.74425245	      0.62661820	     -0.31472041	      0.73061218	      0.87307081	     -0.65397224	      0.79248845	      0.75634044	     -0.63292558	      0.70900121	      0.62299334	     -0.64161980	      0.80389986	      0.38222468	     -0.38064042	      0.73179477	      0.29331098	     -0.33856508	      0.73379206	      0.19539896	     -0.40414146	      0.65032369	      0.41354482	     -0.59027794	      0.55460870	      0.43079686	     -0.65567014	      0.46307209	      0.33070280	     -0.58967077	      0.57449021	      0.08587038	     -0.43963782	      0.81070781	      0.06839356	     -0.40131228	      0.76324587	      0.05066981	     -0.31511881	      0.28723516	      0.38186562	     -0.56268618	      0.35268283	      0.16143650	     -0.59305855	      0.30297402	      0.16927929	     -0.66993479	      0.75870386	      1.51948411	     -0.62771055	      0.68213028	      1.50475297	     -0.29551939	      0.79898829	      1.47247571	     -0.41946770	      0.66907283	      1.54789539	     -0.48438336	      0.59921408	      1.40425281	     -0.22365304	      0.52512065	      1.33883148	     -0.26480500	      0.54146936	      1.30286931	     -0.19855929	      0.51153750	      1.21494269	     -0.17228003	      0.49089527	      1.19223383	     -0.25081927	      0.73018947	      1.42510234	     -0.73169423	      0.66183690	      1.34857250	     -0.74218342	      0.72006628	      1.32087505	     -0.79211145	      0.72898861	      1.23949001	     -0.83059347	      0.66100222	      1.20631410	     -0.79926122	      0.57722361	      1.16507726	     -0.16893193	      0.77737684	      1.14827551	     -0.22519769	      0.74323190	      1.08520087	     -0.21849212	      0.80629570	      1.18051622	     -0.74921569	      0.86705588	      1.18121566	     -0.60343308	      0.85445569	      1.11823184	     -0.62924925	      0.76836603	      0.99911929	     -0.33272838	      0.78736769	      0.99023034	     -0.58790077
      0.20000000	     -2.60152719	     -2.53349419	     -3.27395958	      0.76916073	      0.99299133	     -0.45913142	     17.19733536	      6.17999077	     -3.46321853	    -34.78608377	     12.15240020	     10.04801027	     -6.20504061	     -4.64507719	    -74.51261930	    -10.78711166	     -3.67269382	      4.47367851	     -8.92826318	    -20.13329391	    -20.95149211	      3.24411225	    100.44834357	     74.33127389	    -15.86952516	    -32.73083660	     19.97990283	    107.18445626	     76.14831370	      0.00000000	      0.00000000	      0.00000000	      0.00000000	      0.00000000	      0.00000000	      0.00000000	      0.00000000	      0.59223875	      1.06380974	     -0.51900498	      0.58716748	      1.06468547	     -0.43431650	      0.71149157	      0.86483165	     -0.27918662	      0.79329828	      0.73922185	     -0.29120094	      0.73901157	      0.62243523	     -0.31408774	      0.72924187	      0.86978060	     -0.65345808	      0.79748980	      0.75511470	     -0.63246797	      0.71911765	      0.61961651	     -0.64171201	      0.79332025	      0.37719672	     -0.38020495	      0.71818704	      0.29053205	     -0.33859426	      0.71691400	      0.19289820	     -0.40469071	      0.66377825	      0.41131736	     -0.58857998	      0.56887706	      0.42911092	     -0.65568218	      0.47659895	      0.32977071	     -0.58943326	      0.55460178	      0.08613358	     -0.44004810	      0.79056754	      0.06800012	     -0.40135478	      0.74299702	      0.05063715	     -0.31530122	      0.29953674	      0.38099059	     -0.56284424	      0.36814198	      0.16163581	     -0.59439768	      0.31878097	      0.16969418	     -0.67160268	      0.75810921	      1.51563449	     -0.62594237	      0.68409728	      1.49899336	     -0.29285528	      0.79978448	      1.46729442	     -0.41818152	      0.66995333	      1.54468818	     -0.48170495	      0.60432148	      1.39518150	     -0.22105220	      0.53058526	      1.32782534	     -0.26084294	      0.54902027	      1.29188769	     -0.19586063	      0.52197351	      1.20282301	     -0.16968878	      0.49991519	      1.18026033	     -0.24763332	      0.72603841	      1.42246291	     -0.73047777	      0.65624869	      1.34677841	     -0.73866418	      0.71218778	      1.31915104	     -0.79160741	      0.71963302	      1.23794532	     -0.83042358	      0.65167077	      1.20630119	     -0.79838058	      0.58886690	      1.15440881	     -0.16778828	      0.78813672	      1.14115114	     -0.22712319	      0.75483502	      1.07750414	     -0.22090670	      0.79654380	      1.17444531	     -0.75189662	      0.85994387	      1.16793150	     -0.60758168	      0.84450799	      1.10640194	     -0.63494033	      0.76753973	      0.99456693	     -0.33255959	      0.78605663	      0.98567355	     -0.58940394
      0.21000000	     -3.10107477	     -2.75192377	     -3.05397740	      0.76706786	      0.98911167	     -0.45950516	     17.02215580	      6.27789847	     -3.80500949	    -35.74428298	     13.32423841	     12.89672355	     -6.42795971	     -3.92388647	    -76.74269935	     -9.59841397	     -3.46820362	      5.12870817	     -8.22269756	    -18.51264264	    -20.40320764	      3.61800578	    100.06117050	     73.78367622	    -16.86237753	    -32.57149345	     20.12839436	    105.84140538	     75.98985709	      0.00000000	      0.00000000	      0.00000000	      0.00000000	      0.00000000	      0.00000000	      0.00000000	      0.00000000	      0.59019685	      1.06162939	     -0.51853397	      0.58563029	      1.06293535	     -0.43382542	      0.70830402	      0.86212738	     -0.27888146	      0.78832633	      0.73570824	     -0.29015459	      0.73255334	      0.61931766	     -0.31320499	      0.72693724	      0.86714038	     -0.65302762	      0.80212958	      0.75523528	     -0.63193831	      0.72921779	      0.61768465	     -0.64203184	      0.78189338	      0.37330354	     -0.37993600	      0.70443009	      0.28848449	     -0.33828564	      0.69989764	      0.19127557	     -0.40461071	      0.67767801	      0.41025287	     -0.58666914	      0.58336223	      0.42763248	     -0.65551499	      0.49115675	      0.32840294	     -0.58922387	      0.53500305	      0.08746750	     -0.44000050	      0.77061574	      0.06768129	     -0.40119512	      0.72281291	      0.05055769	     -0.31526042	      0.31264711	      0.37838108	     -0.56321970	      0.38585236	      0.16039655	     -0.59516555	      0.33684104	      0.16870788	     -0.67271055	      0.75773708	      1.51300790	     -0.62450103	      0.68633938	      1.49467804	     -0.29057436	      0.80064461	      1.46330700	     -0.41716621	      0.67058453	      1.54224952	     -0.47936615	      0.60901433	      1.38795505	     -0.21909875	      0.53625345	      1.31859364	     -0.25776860	      0.55685983	      1.28257536	     -0.19363187	      0.53267909	      1.19247348	     -0.16763597	      0.50974010	      1.17020744	     -0.24528916	      0.72201630	      1.42143829	     -0.72953290	      0.65073470	      1.34695143	     -0.73484781	      0.70363469	      1.31950246	     -0.79129551	      0.70920554	      1.23838991	     -0.83098809	      0.64126698	      1.20827645	     -0.79823526	      0.60061675	      1.14518142	     -0.16736767	      0.79926338	      1.13707261	     -0.23000008	      0.76717169	      1.07281315	     -0.22512090	      0.78541997	      1.16974927	     -0.75536832	      0.85127426	      1.15765415	     -0.61235090	      0.83287127	      1.09743674	     -0.64067298	      0.76631637	      0.99059249	     -0.33233319	      0.78424211	      0.98195368	     -0.59028713
